<svg width="256" height="256" viewBox="0 0 256 256" xmlns="http://www.w3.org/2000/svg">
  <!-- loaf body -->
  <path d="M 30 150 Q 30 70 128 70 Q 226 70 226 150 L 226 185 Q 226 200 211 200 L 45 200 Q 30 200 30 185 Z" fill="#D9913B"/>
  <!-- crust highlight -->
  <path d="M 42 140 Q 46 84 128 82 Q 210 84 214 140 Q 214 110 190 96 Q 160 80 128 80 Q 96 80 66 96 Q 42 110 42 140 Z" fill="#E8AC5E"/>
  <!-- scoring cuts -->
  <path d="M 78 92 Q 92 112 86 136" stroke="#F4DCAB" stroke-width="10" stroke-linecap="round" fill="none"/>
  <path d="M 122 86 Q 136 108 130 134" stroke="#F4DCAB" stroke-width="10" stroke-linecap="round" fill="none"/>
  <path d="M 166 92 Q 180 112 174 138" stroke="#F4DCAB" stroke-width="10" stroke-linecap="round" fill="none"/>
  <!-- base shadow -->
  <path d="M 30 178 L 226 178 L 226 185 Q 226 200 211 200 L 45 200 Q 30 200 30 185 Z" fill="#B8762A"/>
</svg>
