<svg width="64" height="72" viewBox="0 0 64 72" xmlns="http://www.w3.org/2000/svg">
  <!-- SDずんだもん(大群用・二次創作) -->
  <!-- 枝豆の葉 -->
  <ellipse cx="18" cy="10" rx="9" ry="5" fill="#6CBF59" transform="rotate(-30 18 10)"/>
  <ellipse cx="46" cy="10" rx="9" ry="5" fill="#6CBF59" transform="rotate(30 46 10)"/>
  <!-- 髪 -->
  <circle cx="32" cy="28" r="22" fill="#9ADB84"/>
  <!-- 顔 -->
  <circle cx="32" cy="32" r="17" fill="#FFEFD9"/>
  <path d="M 15 26 Q 20 14 32 13 Q 44 14 49 26 Q 42 20 32 21 Q 22 20 15 26 Z" fill="#9ADB84"/>
  <!-- 目・口 -->
  <circle cx="26" cy="32" r="2.6" fill="#3E7A34"/>
  <circle cx="38" cy="32" r="2.6" fill="#3E7A34"/>
  <path d="M 28 39 Q 32 43 36 39" stroke="#C96" stroke-width="2" fill="none" stroke-linecap="round"/>
  <!-- 体 -->
  <path d="M 22 50 Q 32 46 42 50 L 44 64 Q 32 68 20 64 Z" fill="#FFFFFF"/>
  <path d="M 22 50 Q 32 46 42 50 L 42.5 55 Q 32 59 21.5 55 Z" fill="#5FA84D"/>
  <!-- 足 -->
  <ellipse cx="27" cy="67" rx="5" ry="4" fill="#FBE9D0"/>
  <ellipse cx="37" cy="67" rx="5" ry="4" fill="#FBE9D0"/>
</svg>
